TITLE ""
FILE "Step2_Track36.mp3" MP3
  TRACK 01 AUDIO
    TITLE "Step2_Track36_01"
    INDEX 01 00:00:00
  TRACK 02 AUDIO
    TITLE "Step2_Track36_02"
    INDEX 01 00:00:22
  TRACK 03 AUDIO
    TITLE "Step2_Track36_03"
    INDEX 01 00:02:05
  TRACK 04 AUDIO
    TITLE "Step2_Track36_04"
    INDEX 01 00:02:52
  TRACK 05 AUDIO
    TITLE "Step2_Track36_05"
    INDEX 01 00:03:52
  TRACK 06 AUDIO
    TITLE "Step2_Track36_06"
    INDEX 01 00:03:75
  TRACK 07 AUDIO
    TITLE "Step2_Track36_07"
    INDEX 01 00:06:07
  TRACK 08 AUDIO
    TITLE "Step2_Track36_08"
    INDEX 01 00:06:31
  TRACK 09 AUDIO
    TITLE "Step2_Track36_09"
    INDEX 01 00:07:26
  TRACK 10 AUDIO
    TITLE "Step2_Track36_10"
    INDEX 01 00:07:46
  TRACK 11 AUDIO
    TITLE "Step2_Track36_11"
    INDEX 01 00:09:54
  TRACK 12 AUDIO
    TITLE "Step2_Track36_12"
    INDEX 01 00:10:09
  TRACK 13 AUDIO
    TITLE "Step2_Track36_13"
    INDEX 01 00:11:04
  TRACK 14 AUDIO
    TITLE "Step2_Track36_14"
    INDEX 01 00:11:22
  TRACK 15 AUDIO
    TITLE "Step2_Track36_15"
    INDEX 01 00:13:31
  TRACK 16 AUDIO
    TITLE "Step2_Track36_16"
    INDEX 01 00:13:66
  TRACK 17 AUDIO
    TITLE "Step2_Track36_17"
    INDEX 01 00:14:61
  TRACK 18 AUDIO
    TITLE "Step2_Track36_18"
    INDEX 01 00:15:12
  TRACK 19 AUDIO
    TITLE "Step2_Track36_19"
    INDEX 01 00:17:03
  TRACK 20 AUDIO
    TITLE "Step2_Track36_20"
    INDEX 01 00:17:21
  TRACK 21 AUDIO
    TITLE "Step2_Track36_21"
    INDEX 01 00:18:20
  TRACK 22 AUDIO
    TITLE "Step2_Track36_22"
    INDEX 01 00:18:43
  TRACK 23 AUDIO
    TITLE "Step2_Track36_23"
    INDEX 01 00:20:48
  TRACK 24 AUDIO
    TITLE "Step2_Track36_24"
    INDEX 01 00:20:58
  TRACK 25 AUDIO
    TITLE "Step2_Track36_25"
    INDEX 01 00:21:63
  TRACK 26 AUDIO
    TITLE "Step2_Track36_26"
    INDEX 01 00:22:06
  TRACK 27 AUDIO
    TITLE "Step2_Track36_27"
    INDEX 01 00:24:64
  TRACK 28 AUDIO
    TITLE "Step2_Track36_28"
    INDEX 01 00:24:75
  TRACK 29 AUDIO
    TITLE "Step2_Track36_29"
    INDEX 01 00:26:06
  TRACK 30 AUDIO
    TITLE "Step2_Track36_30"
    INDEX 01 00:26:18
  TRACK 31 AUDIO
    TITLE "Step2_Track36_31"
    INDEX 01 00:29:08
  TRACK 32 AUDIO
    TITLE "Step2_Track36_32"
    INDEX 01 00:29:10
  TRACK 33 AUDIO
    TITLE "Step2_Track36_33"
    INDEX 01 00:29:75
  TRACK 34 AUDIO
    TITLE "Step2_Track36_34"
    INDEX 01 00:30:25
  TRACK 35 AUDIO
    TITLE "Step2_Track36_35"
    INDEX 01 00:33:04
  TRACK 36 AUDIO
    TITLE "Step2_Track36_36"
    INDEX 01 00:33:14
  TRACK 37 AUDIO
    TITLE "Step2_Track36_37"
    INDEX 01 00:34:17
  TRACK 38 AUDIO
    TITLE "Step2_Track36_38"
    INDEX 01 00:34:19
  TRACK 39 AUDIO
    TITLE "Step2_Track36_39"
    INDEX 01 00:36:57
  TRACK 40 AUDIO
    TITLE "Step2_Track36_40"
    INDEX 01 00:36:69
  TRACK 41 AUDIO
    TITLE "Step2_Track36_41"
    INDEX 01 00:37:66
  TRACK 42 AUDIO
    TITLE "Step2_Track36_42"
    INDEX 01 00:38:09
  TRACK 43 AUDIO
    TITLE "Step2_Track36_43"
    INDEX 01 00:40:69
